<svg width="18" height="17" viewBox="0 0 18 17" fill="none" xmlns="http://www.w3.org/2000/svg">
<path d="M10.3125 1.27344L17.1875 7.83594C17.3828 8.03125 17.5 8.26562 17.5 8.53906C17.5 8.77344 17.3828 9.00781 17.1875 9.20312L10.3125 15.7656C9.96094 16.1172 9.33594 16.1172 8.98438 15.7266C8.63281 15.375 8.63281 14.75 9.02344 14.3984L14.2188 9.47656H0.9375C0.390625 9.47656 0 9.04688 0 8.53906C0 7.99219 0.390625 7.60156 0.9375 7.60156H14.2188L9.02344 2.64062C8.63281 2.28906 8.63281 1.66406 8.98438 1.3125C9.33594 0.921875 9.92188 0.921875 10.3125 1.27344Z" fill="#1E1E1E"/>
</svg>
