<svg width="22" height="19" viewBox="0 0 22 19" fill="none" xmlns="http://www.w3.org/2000/svg">
<path d="M19.0469 1.96094C18.1094 1.14062 16.9375 0.75 15.7656 0.75C14.3203 0.75 12.8359 1.375 11.7422 2.46875L11 3.28906L10.2188 2.46875C9.125 1.375 7.64062 0.75 6.19531 0.75C5.02344 0.75 3.85156 1.14062 2.91406 1.96094C0.453125 4.07031 0.335938 7.82031 2.52344 10.0859L10.1016 17.8984C10.3359 18.1328 10.6484 18.25 10.9609 18.25C11.3125 18.25 11.625 18.1328 11.8594 17.8984L19.4375 10.0859C21.625 7.82031 21.5078 4.07031 19.0469 1.96094ZM18.0703 8.79688L11 16.1016L3.89062 8.79688C2.64062 7.46875 2.32812 4.92969 4.125 3.40625C5.6875 2.03906 7.83594 2.70312 8.85156 3.79688L11 5.98438L13.1094 3.79688C14.125 2.74219 16.2734 2.03906 17.8359 3.40625C19.6328 4.92969 19.3594 7.46875 18.0703 8.79688Z" fill="#1E1E1E"/>
</svg>
