<svg width="18" height="19" viewBox="0 0 18 19" fill="none" xmlns="http://www.w3.org/2000/svg">
<path d="M13.75 10.75C12.6172 10.75 11.6016 11.2578 10.8984 12.0781L7.38281 10.3203C7.46094 10.0469 7.5 9.77344 7.5 9.5C7.5 9.26562 7.46094 8.99219 7.38281 8.71875L10.8984 6.96094C11.6016 7.74219 12.6172 8.25 13.75 8.25C15.8203 8.25 17.5 6.60938 17.5 4.5C17.5 2.42969 15.8203 0.75 13.75 0.75C11.6406 0.75 10 2.42969 10 4.5C10 4.77344 10 5.04688 10.0781 5.32031L6.5625 7.07812C5.85938 6.25781 4.84375 5.75 3.75 5.75C1.64062 5.75 0 7.42969 0 9.5C0 11.6094 1.64062 13.25 3.75 13.25C4.84375 13.25 5.85938 12.7812 6.5625 11.9609L10.0781 13.7188C10 13.9922 10 14.2656 10 14.5C10 16.6094 11.6406 18.25 13.75 18.25C15.8203 18.25 17.5 16.6094 17.5 14.5C17.5 12.4297 15.8203 10.75 13.75 10.75ZM13.75 2.625C14.7656 2.625 15.625 3.48438 15.625 4.5C15.625 5.55469 14.7656 6.375 13.75 6.375C12.6953 6.375 11.875 5.55469 11.875 4.5C11.875 3.48438 12.6953 2.625 13.75 2.625ZM3.75 11.375C2.69531 11.375 1.875 10.5547 1.875 9.5C1.875 8.48438 2.69531 7.625 3.75 7.625C4.76562 7.625 5.625 8.48438 5.625 9.5C5.625 10.5547 4.76562 11.375 3.75 11.375ZM13.75 16.375C12.6953 16.375 11.875 15.5547 11.875 14.5C11.875 13.4844 12.6953 12.625 13.75 12.625C14.7656 12.625 15.625 13.4844 15.625 14.5C15.625 15.5547 14.7656 16.375 13.75 16.375Z" fill="#1E1E1E"/>
</svg>
