<svg width="23" height="21" viewBox="0 0 23 21" fill="none" xmlns="http://www.w3.org/2000/svg">
<path d="M6.83594 16.75C5.78125 16.75 5 17.6094 5 18.625C5 19.6797 5.82031 20.5 6.83594 20.5C7.8125 20.5 8.67188 19.6797 8.67188 18.625C8.67188 17.6094 7.89062 16.75 6.83594 16.75ZM18.0859 16.75C17.0312 16.75 16.25 17.6094 16.25 18.625C16.25 19.6797 17.0703 20.5 18.0859 20.5C19.0625 20.5 19.9219 19.6797 19.9219 18.625C19.9219 17.6094 19.1406 16.75 18.0859 16.75ZM22.2266 2.25781C21.9922 1.94531 21.6406 1.75 21.2109 1.75H4.72656L4.64844 1.28125C4.57031 0.851562 4.17969 0.5 3.75 0.5H0.898438C0.390625 0.5 0 0.929688 0 1.4375C0 1.98438 0.390625 2.375 0.898438 2.375H2.92969L5.27344 14.7578C5.39062 15.1875 5.78125 15.5 6.25 15.5H19.0625C19.5703 15.5 20 15.1094 20 14.6016C20 14.0547 19.5703 13.625 19.0625 13.625H6.99219L6.64062 11.75H19.1016C19.6484 11.75 20.1172 11.3984 20.2734 10.8516L22.4219 3.39062C22.5391 3 22.4609 2.57031 22.2266 2.25781ZM18.6328 9.875H6.28906L5.11719 3.625H20.3906L18.6328 9.875Z" fill="white"/>
</svg>
