<svg width="18" height="21" viewBox="0 0 18 21" fill="none" xmlns="http://www.w3.org/2000/svg">
<path d="M10.625 12.375H6.875C3.04688 12.375 0 15.4609 0 19.25C0 19.9531 0.546875 20.5 1.25 20.5H16.25C16.9141 20.5 17.5 19.9531 17.5 19.25C17.5 15.4609 14.4141 12.375 10.625 12.375ZM1.875 18.625C2.1875 16.1641 4.29688 14.25 6.875 14.25H10.625C13.1641 14.25 15.2734 16.1641 15.5859 18.625H1.875ZM8.75 10.5C11.4844 10.5 13.75 8.27344 13.75 5.5C13.75 2.76562 11.4844 0.5 8.75 0.5C5.97656 0.5 3.75 2.76562 3.75 5.5C3.75 8.27344 5.97656 10.5 8.75 10.5ZM8.75 2.375C10.4688 2.375 11.875 3.78125 11.875 5.5C11.875 7.25781 10.4688 8.625 8.75 8.625C6.99219 8.625 5.625 7.25781 5.625 5.5C5.625 3.78125 6.99219 2.375 8.75 2.375Z" fill="white"/>
</svg>
